<svg id="logo" xmlns="http://www.w3.org/2000/svg" width="300" height="48" viewBox="0 12 140 24">
  <rect id="矩形_1333" data-name="矩形 1333" width="140" height="48" fill="none" opacity="0"/>
  <g id="组_3721" data-name="组 3721" transform="translate(-192.713 -181.529)">
    <g id="组_3719" data-name="组 3719" transform="translate(192.713 192.529)">
      <path id="路径_1664" data-name="路径 1664" d="M205.119,192.529l-1.794,1.025,11.3,6.458V213.1l1.869-1.068v-13Z" transform="translate(-193.744 -192.529)" fill="#c3c4c4"/>
      <path id="路径_1665" data-name="路径 1665" d="M201.036,194.857l-1.884,1.076,11.33,6.475v13.051l1.869-1.068V201.323Z" transform="translate(-193.339 -192.755)" fill="#c3c4c4"/>
      <path id="路径_1666" data-name="路径 1666" d="M196.864,197.241l-1.884,1.076,11.36,6.491v13.017l1.869-1.068V203.724Z" transform="translate(-192.933 -192.987)" fill="#c3c4c4"/>
      <path id="路径_1667" data-name="路径 1667" d="M204.088,219.229v-13l-11.375-6.5v13Z" transform="translate(-192.713 -193.229)" fill="#e7290f"/>
    </g>
    <g id="组_3720" data-name="组 3720" transform="translate(226.838 197.724)">
      <path id="路径_1668" data-name="路径 1668" d="M233.366,200.731v4.236h5.344v2.186h-5.344v4.321h6.781v2.27h-9.634V198.47h9.634v2.261Z" transform="translate(-230.513 -198.301)" fill="#666"/>
      <path id="路径_1669" data-name="路径 1669" d="M257.53,206.107a8.272,8.272,0,0,1-.56,3.085,6.922,6.922,0,0,1-4.014,3.992,8.593,8.593,0,0,1-3.169.56h-5.82V198.47h5.82a8.52,8.52,0,0,1,3.169.565,7.129,7.129,0,0,1,2.44,1.574,7.01,7.01,0,0,1,1.574,2.412A8.272,8.272,0,0,1,257.53,206.107Zm-2.916,0a7.105,7.105,0,0,0-.332-2.255,4.666,4.666,0,0,0-.961-1.69A4.18,4.18,0,0,0,251.8,201.1a5.2,5.2,0,0,0-2.012-.37H246.82v10.752h2.968a5.218,5.218,0,0,0,2.012-.369,4.193,4.193,0,0,0,1.521-1.062,4.666,4.666,0,0,0,.961-1.69A7.1,7.1,0,0,0,254.614,206.107Z" transform="translate(-231.821 -198.301)" fill="#666"/>
      <path id="路径_1670" data-name="路径 1670" d="M273.689,213.743h-2.567a1.127,1.127,0,0,1-1.057-.571l-3.21-4.889a1.126,1.126,0,0,0-.4-.392,1.4,1.4,0,0,0-.639-.116H264.6v5.967h-2.842V198.47h4.659a9.681,9.681,0,0,1,2.667.322,5.113,5.113,0,0,1,1.827.9,3.539,3.539,0,0,1,1.051,1.389,4.555,4.555,0,0,1,.339,1.779,4.605,4.605,0,0,1-.228,1.458,4.23,4.23,0,0,1-.655,1.247,4.39,4.39,0,0,1-1.056.982,5.292,5.292,0,0,1-1.431.664,2.785,2.785,0,0,1,.507.376,2.718,2.718,0,0,1,.423.512Zm-7.31-8.006a4.423,4.423,0,0,0,1.4-.2,2.717,2.717,0,0,0,.983-.555,2.245,2.245,0,0,0,.576-.84,2.913,2.913,0,0,0,.19-1.067,2.167,2.167,0,0,0-.766-1.785,3.666,3.666,0,0,0-2.339-.623H264.6v5.07Z" transform="translate(-233.551 -198.301)" fill="#666"/>
      <path id="路径_1671" data-name="路径 1671" d="M293.371,198.47v15.273h-2.5v-9.865q0-.592.062-1.278l-4.615,8.671a1.067,1.067,0,0,1-1,.623h-.4a1.066,1.066,0,0,1-1-.623l-4.668-8.7q.031.348.053.686c.013.226.02.433.02.624v9.865h-2.5V198.47h2.145c.126,0,.236,0,.327.011a.865.865,0,0,1,.248.052.546.546,0,0,1,.2.137,1.191,1.191,0,0,1,.174.254l4.573,8.482c.12.226.23.458.332.7s.2.487.3.739q.149-.39.308-.756t.337-.7l4.511-8.461a1.077,1.077,0,0,1,.179-.254.587.587,0,0,1,.207-.137.866.866,0,0,1,.247-.052c.092-.007.2-.011.328-.011Z" transform="translate(-235.014 -198.301)" fill="#666"/>
      <path id="路径_1672" data-name="路径 1672" d="M306.925,201.23a.986.986,0,0,1-.269.322.6.6,0,0,1-.354.1.914.914,0,0,1-.481-.163q-.259-.164-.618-.365a5.037,5.037,0,0,0-.84-.364,3.524,3.524,0,0,0-1.135-.164,3.39,3.39,0,0,0-1.035.143,2.18,2.18,0,0,0-.746.4,1.587,1.587,0,0,0-.449.608,1.991,1.991,0,0,0-.148.775,1.355,1.355,0,0,0,.3.9,2.514,2.514,0,0,0,.8.613,7.365,7.365,0,0,0,1.129.454q.634.2,1.3.427a12.289,12.289,0,0,1,1.3.529,4.461,4.461,0,0,1,1.129.76,3.438,3.438,0,0,1,.8,1.125,3.9,3.9,0,0,1,.3,1.616,5.25,5.25,0,0,1-.354,1.938,4.475,4.475,0,0,1-1.035,1.574,4.869,4.869,0,0,1-1.665,1.056,6.112,6.112,0,0,1-2.249.385,7.22,7.22,0,0,1-1.437-.143,7.556,7.556,0,0,1-1.357-.406,7.3,7.3,0,0,1-1.221-.634,5.959,5.959,0,0,1-1.014-.823l.835-1.363a.889.889,0,0,1,.274-.248.693.693,0,0,1,.359-.1,1.012,1.012,0,0,1,.571.217q.306.217.729.48a5.655,5.655,0,0,0,.988.48,3.792,3.792,0,0,0,1.357.217,2.787,2.787,0,0,0,1.88-.575,2.07,2.07,0,0,0,.665-1.653,1.529,1.529,0,0,0-.3-.982,2.419,2.419,0,0,0-.8-.639,5.971,5.971,0,0,0-1.13-.439q-.634-.179-1.288-.391a10.921,10.921,0,0,1-1.288-.506,4.146,4.146,0,0,1-1.131-.772,3.5,3.5,0,0,1-.8-1.187,4.537,4.537,0,0,1-.3-1.76,4.217,4.217,0,0,1,1.3-3.031,4.744,4.744,0,0,1,1.563-.983,5.747,5.747,0,0,1,2.134-.369,7.124,7.124,0,0,1,2.493.422,5.616,5.616,0,0,1,1.943,1.184Z" transform="translate(-237.033 -198.283)" fill="#666"/>
    </g>
  </g>
</svg>
