<svg xmlns="http://www.w3.org/2000/svg" width="25" height="25" viewBox="0 3 28 28">
  <g id="首页-卡片4" transform="translate(-448 -137)">
    <rect id="矩形_2541" data-name="矩形 2541" width="28" height="28" transform="translate(448 137)" fill="none"/>
    <path id="路径_2235" data-name="路径 2235" d="M124.5,182.539a1.294,1.294,0,0,0-1.319-1.326H107.335a1.3,1.3,0,0,0-1.32,1.326v1.326H124.5Zm-3.962-3.979H109.976a1.3,1.3,0,0,0-1.32,1.326h13.2a1.3,1.3,0,0,0-1.321-1.326Zm6.6,5.306-.78-.785v2.112H104.156V183.08l-.781.785c-.781.785-1.342,1-1.025,2.655s1.827,10.712,2.051,11.938a1.631,1.631,0,0,0,1.614,1.326H124.5a1.631,1.631,0,0,0,1.614-1.326c.226-1.226,1.74-10.286,2.055-11.938S127.925,184.652,127.142,183.866Zm-6.6,7.164a1.3,1.3,0,0,1-1.322,1.326H111.3a1.3,1.3,0,0,1-1.319-1.326v-2.654h1.848V190.5h6.863v-2.123h1.851Z" transform="translate(346.74 -38.172)" fill="#5abe7b"/>
  </g>
</svg>
