<svg xmlns="http://www.w3.org/2000/svg" width="25" height="25" viewBox="0 3 28 28">
  <g id="首页-卡片5" transform="translate(-224.131 -146.329)">
    <rect id="矩形_2540" data-name="矩形 2540" width="28" height="28" transform="translate(224.131 146.329)" fill="none"/>
    <path id="路径_2234" data-name="路径 2234" d="M21.576,4.361A3.457,3.457,0,0,0,19.788,6.1L14.534,17.364a2.916,2.916,0,0,0-.177,2l.211.763a2.53,2.53,0,0,0,.092.274,2.571,2.571,0,0,0,3.507,1.4l.721-.329a2.916,2.916,0,0,0,1.419-1.423l1.269-2.721V22.6a2.055,2.055,0,0,1-2.055,2.055H2.055A2.055,2.055,0,0,1,0,22.6V2.055A2.055,2.055,0,0,1,2.055,0H19.521a2.055,2.055,0,0,1,2.055,2.055V4.361ZM5.137,6.164a1.027,1.027,0,1,0,0,2.055H15.411a1.027,1.027,0,1,0,0-2.055Zm0,5.137a1.027,1.027,0,1,0,0,2.055h8.219a1.027,1.027,0,1,0,0-2.055Zm0,5.137a1.027,1.027,0,0,0,0,2.055H11.3a1.027,1.027,0,1,0,0-2.055ZM23.4,5.884a1.6,1.6,0,0,1,.7,2.144l-5.316,11.4a1.141,1.141,0,0,1-.55.555l-.723.336a.981.981,0,0,1-1.384-.646l-.209-.771a1.142,1.142,0,0,1,.072-.777l5.316-11.4A1.6,1.6,0,0,1,23.4,5.883Z" transform="translate(225.998 148)" fill="#2b5baf"/>
  </g>
</svg>
