<svg xmlns="http://www.w3.org/2000/svg" width="25" height="25" viewBox="0 3 28 28">
  <g id="首页-卡片1" transform="translate(-1151 -112)">
    <rect id="矩形_2544" data-name="矩形 2544" width="28" height="28" transform="translate(1151 112)" fill="none"/>
    <path id="路径_2239" data-name="路径 2239" d="M50.005,162.829a5.049,5.049,0,1,1,5.048,4.947,5,5,0,0,1-5.048-4.947Zm6.939,13.641v-.342a7.238,7.238,0,0,1,3.3-6.044,6.6,6.6,0,0,0-2.872-.66H53.16a6.455,6.455,0,0,0-6.521,6.388v.412c0,1.443,2.919,1.443,6.521,1.443h4.023a2.91,2.91,0,0,1-.239-1.2Zm8.962-15.227a4.107,4.107,0,1,0,4.19,4.106A4.149,4.149,0,0,0,65.906,161.243Zm0,0a4.107,4.107,0,1,0,4.19,4.106A4.149,4.149,0,0,0,65.906,161.243Zm-1.569,9.582a5.359,5.359,0,0,0-5.413,5.3v.342c0,1.2,2.423,1.2,5.413,1.2H67.83c2.989,0,5.411-.044,5.411-1.2v-.342a5.357,5.357,0,0,0-5.411-5.3Zm0,0" transform="translate(1105.06 -41.775)" fill="#f14c33"/>
  </g>
</svg>
