<svg xmlns="http://www.w3.org/2000/svg" width="25" height="25" viewBox="0 3 28 28">
  <g id="首页-卡片3" transform="translate(-682 -103.606)">
    <rect id="矩形_2542" data-name="矩形 2542" width="28" height="28" transform="translate(682 103.606)" fill="none"/>
    <path id="路径_2236" data-name="路径 2236" d="M30.226,82.255H5.155a.464.464,0,0,1-.465-.465v-.928a.464.464,0,0,1,.465-.465H7.477V60.9A1.857,1.857,0,0,1,9.334,59.04h9.285A1.857,1.857,0,0,1,20.476,60.9V65.54h5.571A1.857,1.857,0,0,1,27.9,67.4v13h2.321a.464.464,0,0,1,.464.464v.929a.464.464,0,0,1-.464.465ZM13.047,63.684a.464.464,0,0,0-.464-.464H10.727a.464.464,0,0,0-.465.464v1.857a.464.464,0,0,0,.465.464h1.858a.464.464,0,0,0,.464-.464Zm0,5.571a.464.464,0,0,0-.464-.464H10.727a.464.464,0,0,0-.465.464v1.857a.464.464,0,0,0,.465.464h1.858a.464.464,0,0,0,.464-.464Zm0,5.571a.464.464,0,0,0-.464-.464H10.727a.464.464,0,0,0-.465.464v1.857a.464.464,0,0,0,.465.465h1.858a.464.464,0,0,0,.464-.464Zm4.643-11.142a.464.464,0,0,0-.464-.464H15.369a.464.464,0,0,0-.464.464v1.857a.464.464,0,0,0,.464.464h1.857a.464.464,0,0,0,.464-.465Zm0,5.571a.464.464,0,0,0-.464-.464H15.369a.464.464,0,0,0-.464.464v1.857a.464.464,0,0,0,.464.464h1.857a.464.464,0,0,0,.464-.464Zm0,5.571a.464.464,0,0,0-.464-.464H15.369a.464.464,0,0,0-.464.464v1.857a.464.464,0,0,0,.464.464h1.857a.464.464,0,0,0,.464-.464Zm7.429-5.571a.464.464,0,0,0-.465-.464H22.8a.464.464,0,0,0-.464.464v1.857a.464.464,0,0,0,.464.464h1.857a.464.464,0,0,0,.464-.464Zm0,5.571a.464.464,0,0,0-.465-.464H22.8a.464.464,0,0,0-.464.464v1.857a.464.464,0,0,0,.464.464h1.857a.464.464,0,0,0,.464-.464Zm0,0" transform="translate(678.31 46.959)" fill="#ffbd3a"/>
  </g>
</svg>
