<svg xmlns="http://www.w3.org/2000/svg" width="25" height="25" viewBox="0 3 28 28">
  <g id="首页-卡片2" transform="translate(-920.5 -126.362)">
    <rect id="矩形_2543" data-name="矩形 2543" width="28" height="28" transform="translate(920.5 126.362)" fill="none"/>
    <g id="组_5569" data-name="组 5569" transform="translate(805.92 -5.716)">
      <path id="路径_2237" data-name="路径 2237" d="M142.065,144.812l-4.308-2.536a1.411,1.411,0,0,0-1.4,0l-4.117,2.418a.735.735,0,0,0,0,1.2l4.286,2.529a1.375,1.375,0,0,0,1.4,0L142.043,146a.735.735,0,0,0,.022-1.191Zm-16.973-3.124,4.08,2.418a1.389,1.389,0,0,0,1.411,0l4.109-2.418a.735.735,0,0,0,0-1.2l-4.05-2.418a1.419,1.419,0,0,0-1.411,0l-4.139,2.448a.735.735,0,0,0,0,1.169ZM117.748,146l4.117,2.418a1.375,1.375,0,0,0,1.4,0l4.308-2.529a.735.735,0,0,0,0-1.2l-4.117-2.418a1.411,1.411,0,0,0-1.4,0l-4.308,2.536a.735.735,0,0,0,0,1.191Zm14.489-8.424,4.286,2.5a1.375,1.375,0,0,0,1.4,0l4.117-2.418a.735.735,0,0,0,0-1.191l-4.286-2.565a1.411,1.411,0,0,0-1.4,0l-4.117,2.418a.735.735,0,0,0,0,1.257Zm-14.489.081,4.117,2.418a1.375,1.375,0,0,0,1.4,0l4.308-2.5a.735.735,0,0,0,0-1.2L123.46,133.9a1.411,1.411,0,0,0-1.4,0l-4.308,2.565a.735.735,0,0,0,0,1.191Z" transform="translate(-1.321)" fill="#ff7c3b"/>
      <path id="路径_2238" data-name="路径 2238" d="M140.251,515.535l-.64-.382a.735.735,0,0,0-.735,0l-1.47.875a2.874,2.874,0,0,1-1.47.382,2.829,2.829,0,0,1-1.47-.39l-2.573-1.514-1.72-1.036a2.154,2.154,0,0,1-1.014-1.47,2.522,2.522,0,0,1-1.147,0A2.154,2.154,0,0,1,127,513.47l-1.735,1.022-2.558,1.536a2.83,2.83,0,0,1-1.47.382,2.875,2.875,0,0,1-1.47-.39l-1.47-.867a.735.735,0,0,0-.735,0l-.647.382a1.676,1.676,0,0,0,0,2.9l9.961,5.881a3.374,3.374,0,0,0,3.411,0l9.96-5.881a1.676,1.676,0,0,0,.007-2.9Z" transform="translate(0 -366.335)" fill="#ff7c3b"/>
    </g>
  </g>
</svg>
